<?xml version="1.0" encoding="utf-8"?>
<!-- Generator: Adobe Illustrator 24.0.0, SVG Export Plug-In . SVG Version: 6.00 Build 0)  -->
<svg version="1.1" id="Capa_1" xmlns="http://www.w3.org/2000/svg" xmlns:xlink="http://www.w3.org/1999/xlink" x="0px" y="0px"
	 viewBox="0 0 326.1 237.3" style="enable-background:new 0 0 326.1 237.3;" xml:space="preserve">
<style type="text/css">
	.st0{fill:#FFFEF4;}
</style>
<title>bedlamp</title>
<g>
	<path class="st0" d="M114,25.2l-2.1,19.1v4.6c0,3.9,3.1,7.1,7,7.1c0.7,0,1.4-0.1,2.1-0.3c0.1,0,0.3-0.1,0.4-0.1l30.8-11.5l4.4-1.7
		c0.7-0.2,1.3-0.5,1.8-0.9c0.7-0.3,1.3-0.7,1.9-1.3c2.7-2.8,2.7-7.2,0-10.1V30L137,7l-1.1-1.1c-2.1-3.6-6.6-6.1-11.5-3.9l-0.1,0.3
		L28.5,46.6L15.2,53c-3.3,1.6-4.5,4.3-4.1,7c0,0.2-0.1,0.3-0.1,0.5v165.6c0.6,4.6,4.7,7.8,9.3,7.2c3.8-0.5,6.7-3.4,7.2-7.2V65.5
		L114,25.2z M129.4,19.4l13.2,13.2l-15.3,5.7L129.4,19.4z"/>
	<path class="st0" d="M312.9,226.1v-54.6c0-4.2-3.1-7.6-7.2-8.1c-0.3-0.1-0.7-0.2-1-0.2h-14.4v-47.6c0-1.8-0.6-3.5-1.6-4.9
		c-1.2-2.6-3.6-4.5-6.6-4.9H107.3c-3,0.4-5.4,2.3-6.6,4.9c-1.3,1.3-2.2,3-2.4,4.9v47.6H79.1c-2.2,0.3-4.1,1.4-5.4,2.9
		c-1.6,1.3-2.7,3.2-3,5.4v54.6c0.1,4.5,3.7,8.2,8.2,8.3c4.5-0.1,8.2-3.8,8.3-8.3v-46.4h209.1v46.4c-0.6,4.6,2.7,8.7,7.2,9.3
		s8.7-2.7,9.3-7.2C313,227.5,313,226.8,312.9,226.1z M114.8,122.3h159v40.9h-159V122.3z"/>
	<path class="st0" d="M185,142.9h-52c-4,0.1-7.2,3.3-7.3,7.3c0,4,3.3,7.3,7.3,7.3h52c4-0.1,7.2-3.3,7.3-7.3
		C192.2,146.2,189,143.1,185,142.9z"/>
	<path class="st0" d="M256.7,142.5h-52c-4,0.1-7.2,3.3-7.3,7.3c0.1,4,3.3,7.1,7.3,7.3h52c4-0.1,7.2-3.3,7.3-7.3
		C264,145.8,260.7,142.5,256.7,142.5z"/>
</g>
</svg>
