<?xml version="1.0" encoding="utf-8"?>
<!-- Generator: Adobe Illustrator 24.0.0, SVG Export Plug-In . SVG Version: 6.00 Build 0)  -->
<svg version="1.1" id="Capa_1" xmlns="http://www.w3.org/2000/svg" xmlns:xlink="http://www.w3.org/1999/xlink" x="0px" y="0px"
	 viewBox="0 0 401.3 158.5" style="enable-background:new 0 0 401.3 158.5;" xml:space="preserve">
<style type="text/css">
	.st0{fill:#FFFEF4;}
</style>
<title>bedtable</title>
<g>
	<path class="st0" d="M387.4,70.8L387.4,70.8h-17.6V12.1c0.6-4.9-2.4-9.5-6.9-11c-1-0.5-2.2-0.9-3.4-1H144c-0.8,0.1-1.7,0.3-2.4,0.6
		c-4.4,0.7-8.1,4.2-8.7,8.9c-0.1,0.9-0.1,1.7,0,2.6v58.7h-23.6c-2.5,0.3-4.6,1.5-6.2,3.1c-2.2,1.6-3.7,4.1-4.1,7v67.5
		c0.7,5.6,5.9,9.6,11.5,8.9c4.6-0.6,8.3-4.3,8.9-8.9V91.2h257.8v57.2c0.1,5.6,4.7,10.1,10.3,10.1c5.6,0,10.1-4.5,10.1-10.1v0V80.9
		C397.6,75.3,393,70.8,387.4,70.8z M153.3,20.4h196.2v50.4H153.3V20.4z"/>
	<path class="st0" d="M239.9,45.8h-64.1c-5,0-9,4-9,9s4,9,9,9h64.1c5,0,9-4,9-9S244.8,45.8,239.9,45.8z"/>
	<path class="st0" d="M76.8,72.1H12.7c-5,0-9,4-9,9c0,5,4,9,9,9h22.3v58.4c0.1,5.6,4.7,10.1,10.3,10.1c5.6,0,10.1-4.5,10.1-10.1V90
		h21.4c5,0,9-4,9-9C85.8,76.1,81.8,72.1,76.8,72.1z"/>
	<path class="st0" d="M328.4,45.2h-64.1c-5,0-9,4-9,9s4,9,9,9h64.1c5,0,9-4,9-9S333.4,45.2,328.4,45.2z"/>
</g>
</svg>
